<svg width="158" height="31" viewBox="0 0 158 31" fill="none" xmlns="http://www.w3.org/2000/svg">
<path fill-rule="evenodd" clip-rule="evenodd" d="M6.40279 21.2926C6.40279 21.6753 6.46622 22.1251 6.61225 22.635C6.75348 23.1484 7.04194 23.6348 7.45009 24.0928C7.86782 24.5556 8.4579 24.9466 9.24786 25.2645C10.0199 25.5836 11.0504 25.7403 12.3263 25.7403C13.0301 25.7403 13.7184 25.6861 14.4078 25.5907C15.0996 25.4883 15.7196 25.3081 16.2905 25.0526C16.8435 24.7982 17.2948 24.4402 17.6419 23.9774C17.9949 23.5158 18.1697 22.9176 18.1697 22.1722C18.1697 21.6388 18.0524 21.1925 17.8082 20.8322C17.5449 20.4683 17.2062 20.1739 16.7537 19.9301C16.2905 19.6899 15.7555 19.4756 15.1343 19.299C14.5071 19.1223 13.8333 18.941 13.0995 18.7585L10.0941 18.0719C8.963 17.8152 7.85106 17.5373 6.7858 17.2264C5.72174 16.9226 4.77857 16.4763 3.95987 15.9064C3.13879 15.3317 2.48168 14.571 1.97179 13.6349C1.46549 12.7128 1.20935 11.4834 1.20935 9.9785C1.20935 9.46743 1.27518 8.89749 1.38291 8.28869C1.5038 7.67517 1.70129 7.05695 1.98975 6.42695C2.27581 5.80048 2.67438 5.18697 3.17829 4.59112C3.69176 3.99056 4.34049 3.46772 5.14961 3.01082C5.95514 2.57159 6.91267 2.20301 8.03419 1.92392C9.15331 1.64249 10.4651 1.5 11.9732 1.5C14.0954 1.5 15.8692 1.80852 17.278 2.42086C18.6844 3.03555 19.7939 3.79391 20.6318 4.6865C21.4648 5.58146 22.0441 6.54353 22.3852 7.58332C22.7144 8.61487 22.8856 9.55929 22.8856 10.4001H17.278C17.2217 10.0974 17.1344 9.70295 17.0195 9.22721C16.9058 8.75736 16.6508 8.304 16.2606 7.86947C15.8692 7.43142 15.2983 7.05695 14.5718 6.73901C13.8285 6.41988 12.8159 6.2562 11.5424 6.2562C10.9978 6.2562 10.4304 6.31744 9.84991 6.42695C9.26103 6.54353 8.74157 6.73547 8.264 6.9863C7.79839 7.24065 7.41179 7.58332 7.12573 8.00372C6.81453 8.42764 6.67209 8.94106 6.67209 9.55928C6.67209 10.0974 6.76186 10.5367 6.96055 10.8782C7.15206 11.2244 7.41059 11.5011 7.70144 11.706C8.00905 11.9097 8.32624 12.0616 8.67933 12.1652C9.02763 12.2642 9.35319 12.356 9.63207 12.4337L16.4569 14.0847C17.4121 14.312 18.3385 14.5934 19.2266 14.9255C20.1087 15.2599 20.8891 15.705 21.5606 16.2679C22.244 16.832 22.7814 17.5373 23.174 18.3805C23.5893 19.2177 23.7856 20.2575 23.7856 21.4834C23.7856 22.8694 23.5714 24.0516 23.1465 25.0325C22.7096 26.0158 22.1626 26.8436 21.4648 27.5066C20.7766 28.1731 20.0189 28.703 19.1811 29.0975C18.3552 29.5014 17.5246 29.7958 16.7095 30.0019C15.8896 30.2068 15.1343 30.3363 14.4233 30.4046C13.7231 30.4635 13.1762 30.5 12.7489 30.5C10.2042 30.5 8.1467 30.1809 6.57634 29.5426C5 28.8973 3.77914 28.1213 2.92215 27.1804C2.07233 26.2513 1.49781 25.2445 1.20935 24.1729C0.926881 23.0931 0.785645 22.1345 0.785645 21.2926H6.40279Z" fill="#231F20"/>
<path fill-rule="evenodd" clip-rule="evenodd" d="M51.7856 20.1081C51.7856 21.9341 51.522 23.4967 51.0006 24.8042C50.4872 26.1128 49.7424 27.193 48.764 28.0343C47.7947 28.8803 46.6126 29.5049 45.2312 29.9011C43.8499 30.2949 42.2971 30.5 40.575 30.5C39.9453 30.5 39.2535 30.4511 38.503 30.3625C37.7559 30.2716 36.9985 30.0933 36.2307 29.8463C35.4503 29.5853 34.6825 29.238 33.9469 28.8174C33.1964 28.399 32.5218 27.8467 31.914 27.1487C31.1819 26.3015 30.6467 25.3204 30.3324 24.2087C30.017 23.0924 29.8305 21.8386 29.7856 20.4566V1.5H35.6022V20.0767C35.6022 21.0462 35.7265 21.8805 35.9763 22.5715C36.2307 23.2625 36.5795 23.8358 37.0238 24.2833C37.4635 24.7308 37.9815 25.0629 38.579 25.2843C39.1775 25.4975 39.7968 25.6117 40.4645 25.6117C42.4329 25.6117 43.8499 25.1549 44.696 24.2414C45.5489 23.3289 45.9771 22.0355 45.9771 20.3435V1.5H51.7856V20.1081Z" fill="#231F20"/>
<path fill-rule="evenodd" clip-rule="evenodd" d="M65.954 30.5H59.7856V1.5H80.7856V6.54881H65.954V13.5229H78.9362V18.4386H65.954V30.5Z" fill="#231F20"/>
<path fill-rule="evenodd" clip-rule="evenodd" d="M92.954 30.5H86.7856V1.5H107.786V6.54881H92.954V13.5229H105.937V18.4386H92.954V30.5Z" fill="#231F20"/>
<path fill-rule="evenodd" clip-rule="evenodd" d="M116.287 30.5H109.786L116.278 1.5H122.786L116.287 30.5Z" fill="#231F20"/>
<path fill-rule="evenodd" clip-rule="evenodd" d="M126.972 0.5H141.367V1.6265H135.617L142.335 13.0729L150.295 1.6265H145.197V0.5H156.122V1.6265H151.834L143.16 14.2678L152.961 29.3747H157.786V30.5H143.033V29.3747H147.684L140.595 18.0544L132.607 29.3747H137.937V30.5H126.786V29.3747H131.033L139.738 16.8967L130.402 1.6265H126.972V0.5Z" fill="#231F20"/>
</svg>
