<svg width="143" height="27" viewBox="0 0 143 27" fill="none" xmlns="http://www.w3.org/2000/svg">
<path fill-rule="evenodd" clip-rule="evenodd" d="M5.52323 17.7451C5.52323 18.0882 5.58115 18.4915 5.71447 18.9486C5.84343 19.4089 6.1068 19.845 6.47946 20.2557C6.86086 20.6706 7.39963 21.0211 8.1209 21.3061C8.82579 21.5922 9.76672 21.7327 10.9317 21.7327C11.5743 21.7327 12.2027 21.6841 12.8321 21.5986C13.4638 21.5067 14.0299 21.3452 14.5512 21.1161C15.0561 20.8881 15.4681 20.5671 15.785 20.1522C16.1074 19.7383 16.2669 19.202 16.2669 18.5337C16.2669 18.0555 16.1598 17.6553 15.9369 17.3323C15.6965 17.0061 15.3872 16.7421 14.9741 16.5236C14.5512 16.3082 14.0627 16.1161 13.4955 15.9577C12.9228 15.7993 12.3076 15.6367 11.6377 15.4731L8.89354 14.8576C7.86081 14.6274 6.84556 14.3783 5.87293 14.0996C4.9014 13.8272 4.04024 13.4271 3.29274 12.9161C2.54305 12.4009 1.94308 11.7188 1.47754 10.8795C1.01526 10.0529 0.781396 8.95066 0.781396 7.60141C0.781396 7.14322 0.841503 6.63223 0.939858 6.08641C1.05023 5.53636 1.23055 4.98209 1.49393 4.41727C1.75512 3.85561 2.11903 3.30556 2.57912 2.77135C3.04795 2.23291 3.64026 1.76416 4.37902 1.35453C5.1145 0.960734 5.98878 0.630284 7.01277 0.380071C8.03457 0.127746 9.23232 0 10.6093 0C12.5469 0 14.1665 0.276607 15.4528 0.825598C16.7369 1.3767 17.7499 2.0566 18.5149 2.85686C19.2755 3.65924 19.8045 4.52178 20.1159 5.45401C20.4164 6.37885 20.5727 7.22557 20.5727 7.97937H15.4528C15.4014 7.70804 15.3216 7.35437 15.2167 6.92784C15.1129 6.5066 14.8801 6.10013 14.5239 5.71056C14.1665 5.31782 13.6452 4.98209 12.9819 4.69704C12.3032 4.41093 11.3787 4.26418 10.2159 4.26418C9.71864 4.26418 9.20063 4.31908 8.6706 4.41727C8.13293 4.52178 7.65863 4.69387 7.22259 4.91875C6.79748 5.14679 6.44449 5.45401 6.1833 5.83092C5.89916 6.21099 5.76911 6.6713 5.76911 7.22557C5.76911 7.70804 5.85108 8.10184 6.03249 8.40801C6.20734 8.7184 6.4434 8.9665 6.70896 9.1502C6.98982 9.33285 7.27942 9.46904 7.60181 9.56194C7.91982 9.65063 8.21707 9.73298 8.47171 9.80266L14.7031 11.2828C15.5752 11.4866 16.421 11.7389 17.2319 12.0366C18.0373 12.3365 18.7499 12.7355 19.3629 13.2402C19.987 13.7459 20.4776 14.3783 20.8361 15.1342C21.2153 15.8848 21.3945 16.8171 21.3945 17.9161C21.3945 19.1587 21.1989 20.2187 20.811 21.0981C20.4121 21.9797 19.9126 22.7219 19.2755 23.3163C18.6471 23.9138 17.9554 24.3889 17.1904 24.7426C16.4363 25.1047 15.6779 25.3687 14.9337 25.5534C14.1851 25.7371 13.4955 25.8533 12.8463 25.9145C12.207 25.9673 11.7076 26 11.3175 26C8.99408 26 7.11549 25.7139 5.68169 25.1417C4.24242 24.5631 3.12772 23.8674 2.34525 23.0238C1.56933 22.1908 1.04477 21.2882 0.781396 20.3274C0.523486 19.3593 0.394531 18.4999 0.394531 17.7451H5.52323Z" fill="white"/>
<path fill-rule="evenodd" clip-rule="evenodd" d="M46.3945 16.6832C46.3945 18.3202 46.1549 19.7212 45.6808 20.8934C45.2141 22.0666 44.5371 23.0351 43.6476 23.7894C42.7664 24.5478 41.6917 25.1078 40.436 25.463C39.1802 25.8161 37.7685 26 36.203 26C35.6306 26 35.0017 25.9561 34.3194 25.8767C33.6402 25.7952 32.9517 25.6354 32.2537 25.4139C31.5442 25.1799 30.8462 24.8686 30.1775 24.4914C29.4952 24.1164 28.882 23.6212 28.3294 22.9954C27.6639 22.2359 27.1773 21.3562 26.8916 20.3595C26.6049 19.3587 26.4353 18.2346 26.3945 16.9955V0H31.6823V16.655C31.6823 17.5242 31.7953 18.2722 32.0224 18.8917C32.2537 19.5112 32.5708 20.0252 32.9747 20.4264C33.3744 20.8276 33.8453 21.1253 34.3885 21.3238C34.9326 21.515 35.4956 21.6174 36.1026 21.6174C37.892 21.6174 39.1802 21.2079 39.9494 20.3888C40.7248 19.5708 41.1141 18.4111 41.1141 16.8942V0H46.3945V16.6832Z" fill="white"/>
<path fill-rule="evenodd" clip-rule="evenodd" d="M58.9755 26H53.3945V0H72.3945V4.52652H58.9755V10.7791H70.7212V15.1864H58.9755V26Z" fill="white"/>
<path fill-rule="evenodd" clip-rule="evenodd" d="M82.9755 26H77.3945V0H96.3945V4.52652H82.9755V10.7791H94.7223V15.1864H82.9755V26Z" fill="white"/>
<path fill-rule="evenodd" clip-rule="evenodd" d="M104.396 26H98.3945L104.387 0H110.395L104.396 26Z" fill="white"/>
<path fill-rule="evenodd" clip-rule="evenodd" d="M114.562 0H127.565V1.01385H122.371L128.439 11.3156L135.628 1.01385H131.024V0H140.892V1.01385H137.018L129.184 12.391L138.037 25.9872H142.395V27H129.069V25.9872H133.27L126.867 15.799L119.653 25.9872H124.466V27H114.395V25.9872H118.231L126.093 14.757L117.661 1.01385H114.562V0Z" fill="white"/>
</svg>
